<svg width="1200" height="630" viewBox="0 0 1200 630" fill="none" xmlns="http://www.w3.org/2000/svg" role="img" aria-labelledby="title desc">
  <title id="title">Chalo Vietnam tours for global travel partners</title>
  <desc id="desc">Open Graph image for Chalo B2B travel partner landing page.</desc>
  <rect width="1200" height="630" fill="#ffffff"/>
  <rect x="64" y="64" width="1072" height="502" rx="45" fill="#000d10"/>
  <circle cx="1015" cy="160" r="74" fill="#bc7155"/>
  <path d="M136 438C243 332 326 300 444 343C554 383 619 383 721 309C813 241 923 244 1064 318" stroke="#ffffff" stroke-width="22" stroke-linecap="round"/>
  <path d="M136 487C246 381 331 352 447 391C554 427 620 429 724 359C822 292 927 296 1064 369" stroke="#8e8e95" stroke-width="10" stroke-linecap="round" opacity="0.7"/>
  <text x="124" y="177" fill="#ffffff" font-family="Arial, Helvetica, sans-serif" font-size="58" font-weight="700">Chalo</text>
  <text x="124" y="257" fill="#ffffff" font-family="Arial, Helvetica, sans-serif" font-size="74" font-weight="700">Best-value Vietnam tours</text>
  <text x="124" y="321" fill="#ffffff" font-family="Arial, Helvetica, sans-serif" font-size="44" font-weight="400">for global travel partners</text>
  <text x="124" y="520" fill="#bc7155" font-family="Arial, Helvetica, sans-serif" font-size="30" font-weight="700">Fast consultation. Clear booking support. Local Vietnam team.</text>
</svg>
