<svg width="1200" height="630" viewBox="0 0 1200 630" fill="none" xmlns="http://www.w3.org/2000/svg" role="img" aria-labelledby="title desc">
  <title id="title">B2C landing page preview</title>
  <desc id="desc">Open Graph image for the B2C landing page preview.</desc>
  <rect width="1200" height="630" fill="#ffffff"/>
  <rect x="64" y="64" width="1072" height="502" rx="45" fill="#000d10"/>
  <circle cx="1015" cy="160" r="74" fill="#bc7155"/>
  <path d="M146 426C256 324 346 310 454 360C568 413 648 407 756 327C849 258 946 263 1058 334" stroke="#ffffff" stroke-width="22" stroke-linecap="round"/>
  <path d="M146 478C258 376 350 362 458 410C567 459 651 455 760 380C852 316 949 318 1058 386" stroke="#8e8e95" stroke-width="10" stroke-linecap="round" opacity="0.7"/>
  <text x="124" y="177" fill="#ffffff" font-family="Arial, Helvetica, sans-serif" font-size="58" font-weight="700">B2C</text>
  <text x="124" y="257" fill="#ffffff" font-family="Arial, Helvetica, sans-serif" font-size="74" font-weight="700">SEO &amp; Wow Experience</text>
  <text x="124" y="321" fill="#ffffff" font-family="Arial, Helvetica, sans-serif" font-size="44" font-weight="400">Landing page cho nguoi dung cuoi</text>
  <text x="124" y="520" fill="#bc7155" font-family="Arial, Helvetica, sans-serif" font-size="30" font-weight="700">Visual impact. Clear CTA. Fast mobile performance.</text>
</svg>
