<svg width="1200" height="630" viewBox="0 0 1200 630" fill="none" xmlns="http://www.w3.org/2000/svg" role="img" aria-labelledby="title desc">
  <title id="title">Best-Value Vietnam Tours</title>
  <desc id="desc">Open Graph image for Chalo Travel B2C Vietnam tours.</desc>
  <rect width="1200" height="630" fill="#FFFBEB"/>
  <rect x="72" y="72" width="1056" height="486" rx="24" fill="#F0F9FF" stroke="#0EA5E9" stroke-width="6"/>
  <path d="M108 436C216 352 330 342 454 392C572 439 666 426 794 338C910 258 1010 272 1092 344" stroke="#10B981" stroke-width="22" stroke-linecap="round"/>
  <path d="M110 490C220 420 338 410 462 452C580 492 682 478 804 404C920 334 1012 344 1090 404" stroke="#FCD34D" stroke-width="14" stroke-linecap="round"/>
  <circle cx="980" cy="164" r="70" fill="#F97316"/>
  <text x="128" y="184" fill="#0369A1" font-family="Arial, Helvetica, sans-serif" font-size="42" font-weight="700">Chalo Travel</text>
  <text x="128" y="282" fill="#1F2937" font-family="Arial, Helvetica, sans-serif" font-size="74" font-weight="700">Vietnam Tours</text>
  <text x="128" y="358" fill="#1F2937" font-family="Arial, Helvetica, sans-serif" font-size="62" font-weight="700">Best Value 2026</text>
  <text x="128" y="528" fill="#065F46" font-family="Arial, Helvetica, sans-serif" font-size="30" font-weight="700">Package tours from VND 2,490,000 - Advice in 5 minutes</text>
</svg>
